<svg xmlns="http://www.w3.org/2000/svg" viewBox="-400 -150 1400 555">
  <defs>
    <style>
      .cls-1 {
        fill: #342038;
      }
      svg{
        transform: scale(.8) translateY(-70px);
      }
      @media only screen and (max-width : 992px) {
        svg{
          transform: scale(1);
        }
      }
      @media only screen and (max-width : 768px) {
        svg{
          transform: scale(1.5);
        }
      }
    </style>
  </defs>
  <title>logo_davidsanders</title>
  <g id="Title" style="opacity:0">
      <path class="cls-1" d="M58.53,326.18l3.66,19.05h.29l4.85-19.05H70l4.85,19.05h.3l3.66-19.05h1.67l-4,20.83H73.67l-4.85-19h-.3l-4.85,19H60.91l-4-20.83Z" transform="translate(-1.7 -2.44)"/>
      <path class="cls-1" d="M90,331.84c4,0,7,2.67,7,7.17V340H84.24c.21,3.78,2.5,6.1,5.86,6.1a5.07,5.07,0,0,0,5-3.33l1.43.56a6.57,6.57,0,0,1-6.46,4.14c-4.49,0-7.41-3.45-7.41-7.92A7.38,7.38,0,0,1,90,331.84Zm5.45,6.81c-.12-3.54-2.39-5.44-5.45-5.44a5.69,5.69,0,0,0-5.77,5.44Z" transform="translate(-1.7 -2.44)"/>
      <path class="cls-1" d="M102.42,326.18v8.93h.36a6,6,0,0,1,5.71-3.27c4,0,7,3.09,7,7.79s-3,7.8-7,7.8a6,6,0,0,1-5.71-3.27h-.42V347h-1.43V326.18Zm0,13.45c0,3.87,2.41,6.43,5.8,6.43s5.68-2.5,5.68-6.43-2.29-6.42-5.68-6.42S102.42,335.76,102.42,339.63Z" transform="translate(-1.7 -2.44)"/>
      <path class="cls-1" d="M135.36,326.18c5.24,0,8.36,2.44,8.36,8.31v4.22c0,5.86-3.12,8.3-8.36,8.3H129.2V326.18Zm-4.55,19.4h4.46c4.73,0,6.84-1.72,6.84-6.72v-4.52c0-5-2.23-6.73-6.84-6.73h-4.46Z" transform="translate(-1.7 -2.44)"/>
      <path class="cls-1" d="M154.43,331.84c4,0,7,2.67,7,7.17V340H148.66c.21,3.78,2.5,6.1,5.86,6.1a5.06,5.06,0,0,0,5-3.33l1.43.56a6.56,6.56,0,0,1-6.46,4.14c-4.49,0-7.41-3.45-7.41-7.92A7.38,7.38,0,0,1,154.43,331.84Zm5.45,6.81c-.12-3.54-2.38-5.44-5.45-5.44a5.7,5.7,0,0,0-5.77,5.44Z" transform="translate(-1.7 -2.44)"/>
      <path class="cls-1" d="M165.18,332.25l5.06,13.22h.35l5.06-13.22h1.61L171.43,347h-2l-5.83-14.76Z" transform="translate(-1.7 -2.44)"/>
      <path class="cls-1" d="M186.72,331.84c4,0,7,2.67,7,7.17V340H181c.21,3.78,2.5,6.1,5.86,6.1a5.06,5.06,0,0,0,5-3.33l1.43.56a6.56,6.56,0,0,1-6.46,4.14c-4.49,0-7.41-3.45-7.41-7.92A7.38,7.38,0,0,1,186.72,331.84Zm5.45,6.81c-.12-3.54-2.38-5.44-5.45-5.44a5.7,5.7,0,0,0-5.77,5.44Z" transform="translate(-1.7 -2.44)"/>
      <path class="cls-1" d="M199.13,347h-1.49V326.18h1.49Z" transform="translate(-1.7 -2.44)"/>
      <path class="cls-1" d="M210.32,331.84c4.4,0,7.26,3.27,7.26,7.79s-2.86,7.8-7.26,7.8-7.26-3.27-7.26-7.8S205.92,331.84,210.32,331.84Zm0,14.22c3.51,0,5.77-2.71,5.77-6.43s-2.26-6.42-5.77-6.42-5.77,2.79-5.77,6.42C204.55,343.5,206.78,346.06,210.32,346.06Z" transform="translate(-1.7 -2.44)"/>
      <path class="cls-1" d="M221.51,332.25h1.43v2.86h.41a6,6,0,0,1,5.72-3.27c4,0,7,3.09,7,7.79s-3,7.8-7,7.8a6,6,0,0,1-5.72-3.27H223V353h-1.49Zm13,7.38c0-3.92-2.29-6.42-5.68-6.42s-5.8,2.55-5.8,6.42,2.41,6.43,5.8,6.43S234.48,343.56,234.48,339.63Z" transform="translate(-1.7 -2.44)"/>
      <path class="cls-1" d="M246.33,331.84c4,0,7,2.67,7,7.17V340H240.55c.21,3.78,2.5,6.1,5.87,6.1a5.08,5.08,0,0,0,5-3.33l1.42.56a6.56,6.56,0,0,1-6.45,4.14c-4.5,0-7.41-3.45-7.41-7.92A7.38,7.38,0,0,1,246.33,331.84Zm5.44,6.81c-.12-3.54-2.38-5.44-5.44-5.44a5.7,5.7,0,0,0-5.78,5.44Z" transform="translate(-1.7 -2.44)"/>
      <path class="cls-1" d="M258.68,334.07H259c.6-1.31,1.64-1.88,3.63-1.88h2.15v1.37H262.4c-2.27,0-3.66,1.25-3.66,4V347h-1.49V332.25h1.43Z" transform="translate(-1.7 -2.44)"/>
      <path class="cls-1" d="M280.85,335.67v-.29a6.57,6.57,0,0,1-2.06-4.52v-.18c0-2.74,2-4.91,5.42-4.91s5.59,2.11,5.59,5.35v1.13h-1.6v-1a3.66,3.66,0,0,0-4-4c-2.32,0-3.81,1.34-3.81,3.55v.12c0,2.2,1.75,3.8,3.87,5.86l4.76,4.64h.3l3.39-6.46h1.72l-4,7.56v.27L294.8,347h-2.08l-3.07-3h-.32a7.68,7.68,0,0,1-6.31,3.42,5.63,5.63,0,0,1-6-5.74C277,339,279.09,336.87,280.85,335.67ZM283.08,346c2.26,0,3.84-1.16,5.2-3v-.3l-6.1-5.95h-.26c-1.73,1.1-3.31,2.67-3.31,4.85v.12A4.23,4.23,0,0,0,283.08,346Z" transform="translate(-1.7 -2.44)"/>
      <path class="cls-1" d="M307.3,334.6c0-5.59,3.06-8.83,8-8.83s7.35,2.85,7.35,7.44v.26h-1.6v-.26c0-3.75-2-6-5.72-6-4.1,0-6.42,2.71-6.42,7.35v4.11c0,4.64,2.32,7.35,6.37,7.35s5.77-2.17,5.77-5.92V339h-6.91v-1.43h8.51v2.56c0,4.58-2.82,7.35-7.37,7.35-5.06,0-8-3.24-8-8.81Z" transform="translate(-1.7 -2.44)"/>
      <path class="cls-1" d="M328.43,334.07h.36c.59-1.31,1.63-1.88,3.63-1.88h2.14v1.37h-2.41c-2.26,0-3.66,1.25-3.66,4V347H327V332.25h1.43Z" transform="translate(-1.7 -2.44)"/>
      <path class="cls-1" d="M343.9,331.84c3.93,0,6.22,2.2,6.22,5.62V347h-1.49v-2.82h-.35c-.81,1.57-2.53,3.24-6,3.24-3.28,0-5.48-1.64-5.48-4.32,0-2.41,2.26-3.63,5-3.89l6.81-.63v-1.25c0-2.53-1.78-4.13-4.79-4.13s-4.55,1.6-5.62,3.86l-1.31-.59A7.44,7.44,0,0,1,343.9,331.84Zm-1.57,14.28c3.63,0,6.3-2.17,6.3-6v-.24l-6.51.6c-2.56.23-3.84,1.22-3.84,2.7C338.28,345.11,339.92,346.12,342.33,346.12Z" transform="translate(-1.7 -2.44)"/>
      <path class="cls-1" d="M354.82,332.25h1.43v2.86h.42a6,6,0,0,1,5.71-3.27c4,0,7,3.09,7,7.79s-3,7.8-7,7.8a6,6,0,0,1-5.71-3.27h-.36V353h-1.49Zm13,7.38c0-3.92-2.29-6.42-5.69-6.42s-5.8,2.55-5.8,6.42,2.41,6.43,5.8,6.43S367.8,343.56,367.8,339.63Z" transform="translate(-1.7 -2.44)"/>
      <path class="cls-1" d="M374.76,326.18V335h.36a5.57,5.57,0,0,1,5.36-3,5.47,5.47,0,0,1,5.77,5.89V347h-1.49v-9c0-3.28-1.82-4.65-4.58-4.65-3.07,0-5.42,2-5.42,6.13V347h-1.49V326.18Z" transform="translate(-1.7 -2.44)"/>
      <path class="cls-1" d="M391.69,326.42a1.52,1.52,0,1,1-1.51,1.52A1.47,1.47,0,0,1,391.69,326.42Zm.75,20.59H391V332.25h1.49Z" transform="translate(-1.7 -2.44)"/>
      <path class="cls-1" d="M403.8,331.84a6.57,6.57,0,0,1,6.7,5.53l-1.49.3a4.93,4.93,0,0,0-5.21-4.46c-3.36,0-5.89,2.73-5.89,6.42s2.56,6.43,5.92,6.43a5,5,0,0,0,5.27-4.49l1.49.29a6.61,6.61,0,0,1-6.76,5.57,7.8,7.8,0,0,1,0-15.59Z" transform="translate(-1.7 -2.44)"/>
      <path class="cls-1" d="M430.38,326.18c5.23,0,8.36,2.44,8.36,8.31v4.22c0,5.86-3.13,8.3-8.36,8.3h-6.16V326.18Zm-4.56,19.4h4.47c4.73,0,6.84-1.72,6.84-6.72v-4.52c0-5-2.23-6.73-6.84-6.73h-4.47Z" transform="translate(-1.7 -2.44)"/>
      <path class="cls-1" d="M449.45,331.84c4,0,7,2.67,7,7.17V340H443.68c.21,3.78,2.5,6.1,5.86,6.1a5.06,5.06,0,0,0,5-3.33l1.43.56a6.56,6.56,0,0,1-6.46,4.14c-4.49,0-7.41-3.45-7.41-7.92A7.38,7.38,0,0,1,449.45,331.84Zm5.45,6.81c-.12-3.54-2.38-5.44-5.45-5.44a5.7,5.7,0,0,0-5.77,5.44Z" transform="translate(-1.7 -2.44)"/>
      <path class="cls-1" d="M465,331.84c2.85,0,5.11,1.16,7.17,4l-1.22.75a6.9,6.9,0,0,0-5.93-3.42c-2.23,0-3.83,1-3.83,2.7,0,1.91,1.75,2.47,3.92,2.8l1.61.24c3.42.5,5.45,1.55,5.45,4,0,2.62-2.38,4.55-6.19,4.55a7.68,7.68,0,0,1-7.41-5l1.37-.56a6,6,0,0,0,6,4.22c2.85,0,4.7-1.31,4.7-3.15s-1.76-2.29-4.2-2.65l-1.6-.24c-3-.45-5.18-1.43-5.18-4.11S462,331.84,465,331.84Z" transform="translate(-1.7 -2.44)"/>
      <path class="cls-1" d="M476.5,326.42a1.52,1.52,0,1,1-1.51,1.52A1.47,1.47,0,0,1,476.5,326.42Zm.75,20.59h-1.49V332.25h1.49Z" transform="translate(-1.7 -2.44)"/>
      <path class="cls-1" d="M495.7,332.25V351a1.77,1.77,0,0,1-1.91,2H482.37v-1.31h11c.53,0,.83-.29.83-.89v-6.84h-.36a6,6,0,0,1-5.71,3.27c-4,0-7-3-7-7.68s3-7.67,7-7.67a6,6,0,0,1,5.71,3.27h.42v-2.86Zm-1.49,7.26c0-3.8-2.41-6.3-5.8-6.3s-5.69,2.44-5.69,6.3,2.29,6.31,5.69,6.31S494.21,343.32,494.21,339.51Z" transform="translate(-1.7 -2.44)"/>
      <path class="cls-1" d="M502,332.25V335h.42a5.58,5.58,0,0,1,5.36-3,5.47,5.47,0,0,1,5.77,5.89V347h-1.49v-9c0-3.28-1.81-4.65-4.58-4.65-3.06,0-5.41,2-5.41,6.13V347h-1.49V332.25Z" transform="translate(-1.7 -2.44)"/>
      <path class="cls-1" d="M524.62,331.84c4,0,7,2.67,7,7.17V340H518.85c.21,3.78,2.5,6.1,5.86,6.1a5.06,5.06,0,0,0,5-3.33l1.43.56a6.56,6.56,0,0,1-6.46,4.14c-4.49,0-7.41-3.45-7.41-7.92A7.38,7.38,0,0,1,524.62,331.84Zm5.45,6.81c-.12-3.54-2.38-5.44-5.45-5.44a5.69,5.69,0,0,0-5.77,5.44Z" transform="translate(-1.7 -2.44)"/>
      <path class="cls-1" d="M537,334.07h.36c.59-1.31,1.63-1.88,3.63-1.88h2.14v1.37h-2.41c-2.26,0-3.66,1.25-3.66,4V347h-1.49V332.25H537Z" transform="translate(-1.7 -2.44)"/>
  </g>
  <g id="David_Sanders" data-name="David Sanders" style="">

      <path class="cls-1" style="opacity: 0;" d="M20.51,238.53c16,0,25.54,7.45,25.54,25.35v12.91c0,17.9-9.54,25.36-25.54,25.36H1.7V238.53ZM6.61,297.78H20.24c14.45,0,20.9-5.27,20.9-20.54V263.43c0-15.27-6.81-20.54-20.9-20.54H6.61Z" transform="translate(-1.7 -2.44)"/>
      <path class="cls-1" style="opacity: 0;" d="M78.68,255.79c12,0,19,6.73,19,17.18v29.18H93.13v-8.64H92c-2.46,4.82-7.73,9.91-18.36,9.91-10,0-16.72-5-16.72-13.18,0-7.36,6.9-11.09,15.36-11.91l20.81-1.9v-3.82c0-7.73-5.45-12.64-14.63-12.64-9,0-13.91,4.91-17.18,11.82l-4-1.82C60.41,262.88,67.32,255.79,78.68,255.79Zm-4.82,43.63c11.09,0,19.27-6.63,19.27-18.36v-.73l-19.91,1.82c-7.81.73-11.72,3.73-11.72,8.27C61.5,296.33,66.5,299.42,73.86,299.42Z" transform="translate(-1.7 -2.44)"/>
      <path class="cls-1" style="opacity: 0;" d="M109.67,257.07l15.45,40.35h1.09l15.45-40.35h4.91l-17.81,45.08h-6.18l-17.82-45.08Z" transform="translate(-1.7 -2.44)"/>
      <path class="cls-1" style="opacity: 0;" d="M159.2,239.25a4.64,4.64,0,1,1-4.63,4.64A4.49,4.49,0,0,1,159.2,239.25Zm2.27,62.9h-4.54V257.07h4.54Z" transform="translate(-1.7 -2.44)"/>
      <path class="cls-1" style="opacity: 0;" d="M217.82,302.15h-4.36v-8.73h-1.27c-2.55,4.91-7.55,10-17.45,10-12.09,0-21.27-9.45-21.27-23.81s9.18-23.82,21.27-23.82c9.9,0,14.9,5.09,17.45,10h1.09V238.53h4.54ZM178.2,279.61c0,12,7,19.63,17.36,19.63s17.72-7.82,17.72-19.63S205.92,260,195.56,260,178.2,267.61,178.2,279.61Z" transform="translate(-1.7 -2.44)"/>
      <path class="cls-1" style="opacity: 0;" d="M300.53,256v4.18h-4.91v-3.91c0-10-8.36-14.63-17.63-14.63-8.36,0-15.82,4.45-15.82,12.27,0,8,5.55,10.63,14.46,12.81l6.36,1.55c10.27,2.45,17.36,7,17.36,17.17,0,11-9.27,18-21.82,18-15.45,0-24.17-8.45-24.17-23.54v-2.45h4.91v2.18c0,13.45,7.54,19.45,19.17,19.45,10.73,0,17-5.82,17-13.64,0-7.54-5.91-10.9-14.63-13l-6.37-1.55c-10.27-2.45-17.17-6.54-17.17-17,0-9.82,9.09-16.64,20.9-16.64C290.71,237.25,300.53,243.8,300.53,256Z" transform="translate(-1.7 -2.44)"/>
      <path class="cls-1" style="opacity: 0;" d="M332.43,255.79c12,0,19,6.73,19,17.18v29.18h-4.55v-8.64h-1.09c-2.45,4.82-7.72,9.91-18.36,9.91-10,0-16.72-5-16.72-13.18,0-7.36,6.91-11.09,15.36-11.91l20.81-1.9v-3.82c0-7.73-5.45-12.64-14.63-12.64-9,0-13.91,4.91-17.18,11.82l-4-1.82C314.16,262.88,321.07,255.79,332.43,255.79Zm-4.82,43.63c11.09,0,19.27-6.63,19.27-18.36v-.73L327,282.15c-7.82.73-11.73,3.73-11.73,8.27C315.25,296.33,320.25,299.42,327.61,299.42Z" transform="translate(-1.7 -2.44)"/>
      <path class="cls-1" style="opacity: 0;" d="M370.15,257.07v8.36h1.27c2.45-4.64,7.09-9.27,16.36-9.27s17.63,5.72,17.63,18v28h-4.54V274.52c0-10-5.55-14.18-14-14.18-9.36,0-16.54,6.18-16.54,18.72v23.09h-4.55V257.07Z" transform="translate(-1.7 -2.44)"/>
      <path class="cls-1" style="opacity: 0;" d="M461.22,302.15h-4.37v-8.73h-1.27c-2.54,4.91-7.54,10-17.45,10-12.09,0-21.27-9.45-21.27-23.81s9.18-23.82,21.27-23.82c9.91,0,14.91,5.09,17.45,10h1.09V238.53h4.55Zm-39.63-22.54c0,12,7,19.63,17.36,19.63s17.72-7.82,17.72-19.63S449.31,260,439,260,421.59,267.61,421.59,279.61Z" transform="translate(-1.7 -2.44)"/>
      <path class="cls-1" style="opacity: 0;" d="M495.57,255.79c12.18,0,21.36,8.18,21.36,21.91v2.91h-39c.64,11.54,7.63,18.63,17.91,18.63,8.54,0,12.81-4.45,15.36-10.18l4.36,1.73c-3,6.18-8,12.63-19.72,12.63-13.73,0-22.64-10.54-22.64-24.18C473.21,266,482.94,255.79,495.57,255.79Zm16.63,20.82c-.36-10.82-7.27-16.64-16.63-16.64s-16.54,6.37-17.63,16.64Z" transform="translate(-1.7 -2.44)"/>
      <path class="cls-1" style="opacity: 0;" d="M533.29,262.61h1.09c1.82-4,5-5.73,11.09-5.73H552v4.19h-7.36c-6.91,0-11.18,3.81-11.18,12.08v29h-4.54V257.07h4.36Z" transform="translate(-1.7 -2.44)"/>
      <path class="cls-1" style="opacity: 0;" d="M576.1,255.79c8.72,0,15.63,3.55,21.9,12.18l-3.73,2.28c-4.45-7-11-10.46-18.08-10.46-6.82,0-11.73,2.91-11.73,8.27,0,5.82,5.37,7.55,12,8.55l4.91.73c10.45,1.54,16.63,4.72,16.63,12.17,0,8-7.27,13.91-18.9,13.91-12.46,0-19.64-7.73-22.63-15.36l4.17-1.73c3.1,8.27,9.37,12.91,18.46,12.91,8.72,0,14.36-4,14.36-9.64,0-5.27-5.37-7-12.82-8.08l-4.91-.73c-9.09-1.37-15.81-4.36-15.81-12.54C559.92,260.52,567.1,255.79,576.1,255.79Z" transform="translate(-1.7 -2.44)"/>

  </g>
  <g id="Fish" style="opacity: 0;">
    <path class="cls-1" d="M335.76,116.37l.32-19.75-30.65-.47L321.55,80.8,297.6,56.54,272.89,80.06l15.63,15.83-30.65-.47-.35,22.43-7.76-.12.36-22.43-32.8-.5L216.8,127l24.3.37-.2,12.38-24.29-.37-.52,32.21,32.8.5.36-22.43,7.76.12-.36,22.43,29.3.45L274.57,183.5l20.64,20.91,21.29-20.26-11-11.18,29.38.45.24-15.06,18.62.29.67-42Zm-9.66,9.45L312,125.6l.22-13.83,14.09.21Z"/>
    <g id="Bubble_1" data-name="Bubble 1">
    <rect class="cls-1" x="350.17" y="60.25" width="23.2" height="23.2"/>
  </g>
  <g id="Bubble_2" data-name="Bubble 2">
    <rect class="cls-1" x="375.27" width="34.4" height="34.4"/>
  </g>
  </g>
  
</svg>
